HIERARCHY
ROOT Hips
{
	OFFSET 0.00000 0.00000 0.00000
	CHANNELS 6 Xposition Yposition Zposition Zrotation Yrotation Xrotation 
	JOINT LHipJoint
	{
		OFFSET 0 0 0
		CHANNELS 3 Zrotation Yrotation Xrotation
		JOINT LeftUpLeg
		{
			OFFSET 1.75344 -1.53157 0.77399
			CHANNELS 3 Zrotation Yrotation Xrotation
			JOINT LeftLeg
			{
				OFFSET 2.25415 -6.19323 0.00000
				CHANNELS 3 Zrotation Yrotation Xrotation
				JOINT LeftFoot
				{
					OFFSET 2.30342 -6.32861 0.00000
					CHANNELS 3 Zrotation Yrotation Xrotation
					JOINT LeftToeBase
					{
						OFFSET 0.10958 -0.30108 1.49206
						CHANNELS 3 Zrotation Yrotation Xrotation
						End Site
						{
							OFFSET 0.00000 -0.00000 0.77783
						}
					}
				}
			}
		}
	}
	JOINT RHipJoint
	{
		OFFSET 0 0 0
		CHANNELS 3 Zrotation Yrotation Xrotation
		JOINT RightUpLeg
		{
			OFFSET -1.81912 -1.53156 0.77399
			CHANNELS 3 Zrotation Yrotation Xrotation
			JOINT RightLeg
			{
				OFFSET -2.22882 -6.12365 0.00000
				CHANNELS 3 Zrotation Yrotation Xrotation
				JOINT RightFoot
				{
					OFFSET -2.21943 -6.09785 0.00000
					CHANNELS 3 Zrotation Yrotation Xrotation
					JOINT RightToeBase
					{
						OFFSET -0.18931 -0.52012 1.59379
						CHANNELS 3 Zrotation Yrotation Xrotation
						End Site
						{
							OFFSET -0.00000 -0.00000 0.84686
						}
					}
				}
			}
		}
	}
	JOINT LowerBack
	{
		OFFSET 0 0 0
		CHANNELS 3 Zrotation Yrotation Xrotation
		JOINT Spine
		{
			OFFSET -0.00200 1.66634 -0.14248
			CHANNELS 3 Zrotation Yrotation Xrotation
			JOINT Spine1
			{
				OFFSET -0.00875 1.64542 0.09514
				CHANNELS 3 Zrotation Yrotation Xrotation
				JOINT Neck
				{
					OFFSET 0 0 0
					CHANNELS 3 Zrotation Yrotation Xrotation
					JOINT Neck1
					{
						OFFSET 0.02257 1.59605 0.00839
						CHANNELS 3 Zrotation Yrotation Xrotation
						JOINT Head
						{
							OFFSET -0.10214 1.57530 -0.23335
							CHANNELS 3 Zrotation Yrotation Xrotation
							End Site
							{
								OFFSET -0.03588 1.60717 -0.08062
							}
						}
					}
				}
				JOINT LeftShoulder
				{
					OFFSET 0 0 0
					CHANNELS 3 Zrotation Yrotation Xrotation
					JOINT LeftArm
					{
						OFFSET 2.54983 1.10186 0.40078
						CHANNELS 3 Zrotation Yrotation Xrotation
						JOINT LeftForeArm
						{
							OFFSET 4.28840 -0.00000 0.00000
							CHANNELS 3 Zrotation Yrotation Xrotation
							JOINT LeftHand
							{
								OFFSET 3.06552 -0.00000 -0.00000
								CHANNELS 3 Zrotation Yrotation Xrotation
								JOINT LeftFingerBase
								{
									OFFSET 0 0 0
									CHANNELS 3 Zrotation Yrotation Xrotation
									JOINT LeftHandIndex1
									{
										OFFSET 0.75304 -0.00000 0.00000
										CHANNELS 3 Zrotation Yrotation Xrotation
										End Site
										{
											OFFSET 0.60712 -0.00000 0.00000
										}
									}
								}
								JOINT LThumb
								{
									OFFSET 0 0 0
									CHANNELS 3 Zrotation Yrotation Xrotation
									End Site
									{
										OFFSET 0.61639 -0.00000 0.61639
									}
								}
							}
						}
					}
				}
				JOINT RightShoulder
				{
					OFFSET 0 0 0
					CHANNELS 3 Zrotation Yrotation Xrotation
					JOINT RightArm
					{
						OFFSET -2.60909 1.35448 0.21802
						CHANNELS 3 Zrotation Yrotation Xrotation
						JOINT RightForeArm
						{
							OFFSET -4.52172 -0.00000 -0.00000
							CHANNELS 3 Zrotation Yrotation Xrotation
							JOINT RightHand
							{
								OFFSET -2.89140 -0.00000 0.00000
								CHANNELS 3 Zrotation Yrotation Xrotation
								JOINT RightFingerBase
								{
									OFFSET 0 0 0
									CHANNELS 3 Zrotation Yrotation Xrotation
									JOINT RightHandIndex1
									{
										OFFSET -0.68054 -0.00000 0.00000
										CHANNELS 3 Zrotation Yrotation Xrotation
										End Site
										{
											OFFSET -0.54867 -0.00000 0.00000
										}
									}
								}
								JOINT RThumb
								{
									OFFSET 0 0 0
									CHANNELS 3 Zrotation Yrotation Xrotation
									End Site
									{
										OFFSET -0.55705 -0.00000 0.55705
									}
								}
							}
						}
					}
				}
			}
		}
	}
}
MOTION
Frames: 15
Frame Time: .0083333
8.6438 15.5215 23.1768 0 0 0 0 0 0 -21 0 0 0 0 0 0 0 0 0 0 0 0 0 0 21 0 0 0 0 0 0 0 0 0 0 0 0 0 0 0 0 0 0 0 0 0 0 -16 0 0 21 0 0 11 0 0 0 -8 0 0 0 0 0 0 0 0 0 0 0 0 0 0 0 0 0 0 0 0 8 0 0 0 0 0 0 0 0 0 0 0 0 0 0 0 0 0
8.6438 15.5215 23.1768 -179.1850 -2.5663 -179.2400 0.0000 0.0000 0.0000 -22.5859 -15.5460 -2.3687 1.7427 8.3083 23.6545 1.3652 6.4103 -25.2237 1.6264 -8.0402 -22.8363 0.0000 0.0000 0.0000 27.9875 12.3248 2.4297 -0.7699 -5.6028 15.6362 1.2296 -23.6209 -23.7750 -0.0028 0.3413 -0.9378 1.8730 1.5459 7.7695 0.1603 2.2385 -4.2547 -1.2179 0.9547 -8.8057 -9.8652 -4.7297 -5.8295 10.2241 -6.7790 9.8822 4.3625 -3.2826 4.5863 -0.0000 -0.0000 0.0000 -86.5281 12.2199 32.5552 18.7089 -29.0554 -4.8887 -0.0000 -0.0000 16.7113 7.2523 -33.8221 -4.0517 -7.1250 0.0000 -0.0000 -13.8893 -3.1823 15.0790 -0.0000 -0.0000 0.0000 85.9165 -10.7669 40.1980 -18.3905 28.6543 -4.7350 0.0000 0.0000 18.6918 -11.2515 -53.2274 9.0542 7.1250 -0.0000 -0.0000 67.9848 -75.5090 -53.5361
8.6461 15.5205 23.1757 -179.1720 -2.5852 -179.1820 0.0000 0.0000 0.0000 -22.5515 -15.5990 -2.3993 1.7407 8.3036 23.6401 1.3554 6.4791 -25.1927 1.7146 -8.2445 -23.4593 0.0000 0.0000 0.0000 28.0167 12.3921 2.3797 -0.7739 -5.6170 15.6770 1.2511 -23.7180 -23.7641 -0.0060 0.5018 -1.3788 1.8236 1.4759 7.7005 0.2002 2.1393 -4.2509 -1.1308 0.9110 -8.7674 -9.9669 -4.7270 -5.8465 10.2641 -6.7690 9.8963 4.3923 -3.2787 4.5972 -0.0000 -0.0000 0.0000 -86.6534 12.0900 32.4994 18.7413 -29.0959 -4.9044 -0.0000 -0.0000 16.7714 7.2595 -33.5738 -4.0295 -7.1250 0.0000 -0.0000 -13.8707 -2.9429 15.0019 -0.0000 -0.0000 0.0000 85.8090 -10.6210 40.3935 -18.2888 28.5254 -4.6864 0.0000 0.0000 18.6917 -11.1024 -52.9713 8.9036 7.1250 -0.0000 -0.0000 67.0906 -75.3782 -52.5742
8.6456 15.5216 23.1722 -179.1750 -2.4540 -179.2150 0.0000 0.0000 0.0000 -22.5705 -15.5375 -2.3174 1.7317 8.2834 23.5783 1.3733 6.4550 -25.3137 1.6410 -8.0744 -22.9404 0.0000 0.0000 0.0000 28.0195 12.4314 2.4218 -0.7786 -5.6338 15.7254 1.2263 -23.6227 -23.8131 -0.0034 0.3776 -1.0375 1.8193 1.4425 7.7092 0.2022 2.0947 -4.2388 -1.1198 0.8900 -8.7609 -10.0616 -4.7548 -5.9545 10.2879 -6.8113 10.0902 4.4098 -3.3000 4.6828 -0.0000 0.0000 0.0000 -86.7003 11.9902 32.4127 18.6990 -29.0429 -4.8839 -0.0000 -0.0000 16.8477 7.0925 -33.7693 -3.9563 -7.1250 0.0000 -0.0000 -13.9733 -3.1116 15.1593 -0.0000 0.0000 0.0000 85.7192 -10.5330 40.6930 -18.2131 28.4292 -4.6503 0.0000 0.0000 18.7276 -10.6218 -53.0076 8.5190 7.1250 -0.0000 -0.0000 67.4378 -75.2067 -52.7034
8.6439 15.5210 23.1658 -179.2040 -2.2396 -179.2950 0.0000 0.0000 0.0000 -22.6363 -15.4213 -2.1701 1.7231 8.2638 23.5181 1.4017 6.3790 -25.4808 1.5088 -7.7578 -21.9807 0.0000 0.0000 0.0000 28.0039 12.4817 2.5224 -0.7834 -5.6507 15.7743 1.2118 -23.5533 -23.8118 -0.0033 0.3695 -1.0154 1.8025 1.4603 7.7354 0.1810 2.1162 -4.2307 -1.1366 0.9010 -8.7665 -10.0878 -4.8041 -6.0366 10.2682 -6.8935 10.3230 4.3996 -3.3425 4.7764 0.0000 0.0000 0.0000 -86.6806 11.9196 32.4584 18.6711 -29.0080 -4.8703 -0.0000 -0.0000 16.8490 7.0340 -34.1467 -3.9619 -7.1250 0.0000 -0.0000 -14.0275 -3.4696 15.3054 0.0000 0.0000 0.0000 85.6022 -10.5912 41.1260 -18.1974 28.4091 -4.6428 0.0000 0.0000 18.6342 -10.0529 -53.2460 8.0841 7.1250 -0.0000 -0.0000 68.5572 -75.0609 -53.5683
8.6441 15.5193 23.1609 -179.2180 -2.0807 -179.3370 0.0000 0.0000 0.0000 -22.6790 -15.3118 -2.0741 1.7151 8.2455 23.4624 1.3842 6.5461 -25.4537 1.5958 -7.9679 -22.6166 0.0000 0.0000 0.0000 28.0091 12.5665 2.5974 -0.7847 -5.6551 15.7869 1.2070 -23.5348 -23.8211 -0.0062 0.5066 -1.3919 1.7554 1.4658 7.7552 0.1910 2.1194 -4.2378 -1.1009 0.9052 -8.7878 -10.1443 -4.8000 -6.0497 10.2785 -6.8963 10.4382 4.4116 -3.3466 4.8161 0.0000 0.0000 0.0000 -86.7290 11.8128 32.5108 18.6655 -29.0009 -4.8676 -0.0000 -0.0000 16.8092 7.5317 -34.2783 -4.2587 -7.1250 0.0000 -0.0000 -13.7657 -3.6591 15.0456 0.0000 0.0000 0.0000 85.4433 -10.6588 41.5392 -18.1938 28.4046 -4.6411 0.0000 0.0000 18.5965 -9.5901 -53.4510 7.7297 7.1250 -0.0000 -0.0000 69.4966 -74.9435 -54.3033
8.6456 15.5196 23.1575 -179.2310 -1.9857 -179.2990 0.0000 0.0000 0.0000 -22.6889 -15.2526 -2.0878 1.7097 8.2332 23.4247 1.3479 6.8859 -25.3958 1.7952 -8.4258 -24.0151 0.0000 0.0000 0.0000 28.0072 12.6575 2.6054 -0.7836 -5.6512 15.7756 1.1922 -23.4781 -23.8514 -0.0064 0.5165 -1.4193 1.7216 1.4514 7.7250 0.1793 2.0932 -4.2674 -1.0899 0.8931 -8.8038 -10.1443 -4.7814 -6.1311 10.2663 -6.8823 10.6144 4.4071 -3.3400 4.8816 0.0000 0.0000 0.0000 -86.6836 11.6800 32.7554 18.6847 -29.0251 -4.8769 -0.0000 -0.0000 16.6215 7.8934 -34.0400 -4.4378 -7.1250 0.0000 -0.0000 -13.5538 -3.4745 14.7591 0.0000 0.0000 0.0000 85.4058 -10.6657 41.6898 -18.1743 28.3798 -4.6318 0.0000 0.0000 18.6241 -9.0148 -53.6110 7.2780 7.1250 -0.0000 -0.0000 70.3092 -74.7709 -54.8622
8.6474 15.5217 23.1538 -179.2390 -1.8677 -179.2280 0.0000 0.0000 0.0000 -22.6628 -15.2516 -2.1236 1.7070 8.2270 23.4058 1.3834 6.7490 -25.5765 1.6111 -8.0040 -22.7264 0.0000 0.0000 0.0000 28.0017 12.7824 2.5846 -0.7826 -5.6479 15.7663 1.1857 -23.4600 -23.8799 -0.0062 0.5092 -1.3993 1.7193 1.4317 7.6841 0.1383 2.0597 -4.3391 -1.1268 0.8728 -8.8571 -10.0955 -4.7686 -6.2717 10.2330 -6.8942 10.9537 4.3845 -3.3461 5.0073 0.0000 -0.0000 0.0000 -86.5429 11.6556 33.0612 18.7597 -29.1190 -4.9134 -0.0000 -0.0000 16.3568 7.7437 -33.9076 -4.3381 -7.1250 0.0000 -0.0000 -13.6267 -3.3270 14.8098 0.0000 -0.0000 0.0000 85.4564 -10.7044 41.7482 -18.1277 28.3204 -4.6097 0.0000 0.0000 18.6204 -8.5624 -53.4654 6.8980 7.1250 -0.0000 -0.0000 69.9787 -74.5638 -54.3236
8.6485 15.5235 23.1500 -179.2780 -1.6977 -179.2030 0.0000 0.0000 0.0000 -22.6907 -15.1490 -2.1372 1.7049 8.2224 23.3916 1.4061 6.6175 -25.6634 1.4965 -7.7273 -21.8889 0.0000 0.0000 0.0000 27.9561 12.8844 2.5948 -0.7812 -5.6429 15.7517 1.1956 -23.4669 -23.7922 -0.0095 0.6279 -1.7256 1.6580 1.4197 7.6861 0.1189 2.0324 -4.4118 -1.1099 0.8595 -8.9397 -10.0700 -4.7500 -6.3487 10.1790 -6.8988 11.2807 4.3611 -3.3530 5.1179 -0.0000 -0.0000 0.0000 -86.5586 11.6438 32.9268 18.7691 -29.1307 -4.9179 -0.0000 -0.0000 16.3892 7.6808 -34.2338 -4.3388 -7.1250 0.0000 -0.0000 -13.6819 -3.6350 14.9432 -0.0000 -0.0000 0.0000 85.4370 -10.7792 41.8799 -18.0872 28.2687 -4.5905 0.0000 0.0000 18.6300 -8.0011 -53.5414 6.4500 7.1250 -0.0000 -0.0000 70.4833 -74.3759 -54.5787
8.6475 15.5231 23.1454 -179.2960 -1.4863 -179.2430 0.0000 0.0000 0.0000 -22.7352 -14.9756 -2.1115 1.7049 8.2222 23.3910 1.3696 6.9062 -25.5734 1.7022 -8.2161 -23.3724 0.0000 0.0000 0.0000 27.9322 12.8897 2.6618 -0.7788 -5.6344 15.7272 1.1723 -23.3159 -23.7073 -0.0092 0.6187 -1.7001 1.6453 1.4416 7.7335 0.1084 2.0595 -4.4481 -1.1201 0.8713 -9.0064 -10.0121 -4.7503 -6.3836 10.0243 -6.9021 11.4661 4.3013 -3.3613 5.1737 -0.0000 0.0000 0.0000 -86.6479 11.5539 32.6528 18.7080 -29.0543 -4.8882 -0.0000 -0.0000 16.6027 7.8564 -34.2342 -4.4388 -7.1250 0.0000 -0.0000 -13.5866 -3.6578 14.8381 -0.0000 0.0000 0.0000 85.4198 -10.8577 41.9087 -18.0622 28.2367 -4.5786 0.0000 0.0000 18.6477 -7.3001 -53.8769 5.9078 7.1250 -0.0000 -0.0000 71.9384 -74.2035 -55.7365
8.6466 15.5209 23.1393 -179.2850 -1.3337 -179.3470 0.0000 0.0000 0.0000 -22.7654 -14.9357 -1.9647 1.7073 8.2279 23.4084 1.3750 7.0218 -25.6896 1.6911 -8.1905 -23.2943 0.0000 0.0000 0.0000 27.9744 12.8901 2.8234 -0.7774 -5.6293 15.7126 1.1325 -23.1757 -23.8190 -0.0063 0.5108 -1.4036 1.6768 1.4371 7.7879 0.1052 2.0606 -4.3956 -1.1422 0.8718 -8.9800 -9.9327 -4.7626 -6.5827 9.8131 -6.8859 11.5986 4.2181 -3.3537 5.2372 0.0000 -0.0000 0.0000 -86.7441 11.3738 32.4448 18.7091 -29.0556 -4.8888 -0.0000 -0.0000 16.7704 7.6283 -33.9617 -4.2788 -7.1250 0.0000 -0.0000 -13.6931 -3.3648 14.8948 0.0000 -0.0000 0.0000 85.4026 -10.8238 41.9232 -18.0151 28.1765 -4.5564 0.0000 0.0000 18.6430 -7.1632 -53.8838 5.7971 7.1250 -0.0000 -0.0000 72.0177 -74.1549 -55.7552
8.6479 15.5188 23.1324 -179.2840 -1.2330 -179.4640 0.0000 0.0000 0.0000 -22.8075 -14.9289 -1.7852 1.7099 8.2337 23.4263 1.4023 7.0588 -25.9175 1.5975 -7.9718 -22.6284 0.0000 0.0000 0.0000 28.0234 12.8852 2.9973 -0.7769 -5.6277 15.7078 1.1141 -23.1329 -23.9169 -0.0064 0.5150 -1.4151 1.6209 1.4049 7.8386 0.1336 2.0180 -4.2993 -1.0745 0.8591 -8.9090 -9.8706 -4.7670 -6.9666 9.6433 -6.8559 11.8499 4.1484 -3.3332 5.3697 0.0000 0.0000 0.0000 -86.8818 11.1155 32.1807 18.7489 -29.1054 -4.9081 -0.0000 -0.0000 16.9082 7.2789 -34.1330 -4.0994 -7.1250 0.0000 -0.0000 -13.8937 -3.4867 15.1544 0.0000 0.0000 0.0000 85.3249 -10.6966 42.0355 -17.9752 28.1254 -4.5375 0.0000 0.0000 18.4913 -7.5039 -53.8018 6.0675 7.1250 -0.0000 -0.0000 71.5958 -74.2597 -55.4809
8.6490 15.5169 23.1241 -179.2300 -1.0596 -179.5230 0.0000 0.0000 0.0000 -22.7824 -14.8217 -1.7163 1.7124 8.2394 23.4437 1.3915 7.2861 -25.9856 1.7231 -8.2638 -23.5182 0.0000 0.0000 0.0000 28.0887 12.8190 3.0686 -0.7747 -5.6197 15.6850 1.1023 -22.9917 -23.7409 -0.0087 0.6009 -1.6513 1.6052 1.4137 7.8233 0.1610 2.0307 -4.2632 -1.0377 0.8685 -8.8618 -9.7469 -4.7583 -7.2165 9.4754 -6.8330 12.0898 4.0713 -3.3199 5.4744 0.0000 0.0000 0.0000 -86.9365 10.8819 32.0850 18.7654 -29.1261 -4.9161 -0.0000 -0.0000 16.7900 7.1012 -33.9398 -3.9788 -7.1250 0.0000 -0.0000 -13.9786 -3.2777 15.2041 0.0000 0.0000 0.0000 85.2834 -10.6778 42.1287 -17.9249 28.0609 -4.5138 0.0000 0.0000 18.4380 -7.9916 -53.6446 6.4507 7.1250 -0.0000 -0.0000 70.8477 -74.3996 -54.9435
8.6485 15.5148 23.1153 -179.1620 -0.7863 -179.5900 0.0000 0.0000 0.0000 -22.7586 -14.6916 -1.6696 1.7249 8.2678 23.5306 1.3778 7.5414 -26.0537 1.8838 -8.6197 -24.6129 0.0000 0.0000 0.0000 28.1484 12.7570 3.1276 -0.7734 -5.6152 15.6718 1.1037 -22.8288 -23.3814 -0.0169 0.8383 -2.3040 1.6565 1.4622 7.7569 0.1623 2.1005 -4.2364 -1.0731 0.9008 -8.7901 -9.6109 -4.7359 -7.2388 9.3223 -6.8006 12.1518 4.0023 -3.3069 5.4843 0.0000 -0.0000 0.0000 -86.9540 10.6988 32.0202 18.8010 -29.1707 -4.9335 -0.0000 -0.0000 16.4793 6.3224 -33.0363 -3.4566 -7.1250 0.0000 -0.0000 -14.3549 -2.3106 15.4060 0.0000 -0.0000 0.0000 85.2901 -10.7462 42.1408 -17.8712 27.9919 -4.4886 0.0000 0.0000 18.7047 -8.5884 -53.1403 6.8902 7.1250 -0.0000 -0.0000 68.8267 -74.4823 -53.1713
8.6478 15.5142 23.1069 -179.1620 -0.5180 -179.6730 0.0000 0.0000 0.0000 -22.8252 -14.6762 -1.5261 1.7367 8.2946 23.6124 1.3930 7.7462 -26.3041 1.8660 -8.5813 -24.4940 0.0000 0.0000 0.0000 28.1621 12.8109 3.2575 -0.7728 -5.6130 15.6657 1.1370 -22.8490 -23.0704 -0.0285 1.0899 -2.9962 1.6726 1.5089 7.7101 0.1411 2.1628 -4.2090 -1.1120 0.9309 -8.7296 -9.5801 -4.6776 -7.1080 9.2837 -6.7259 12.0868 3.9939 -3.2752 5.4320 -0.0000 -0.0000 0.0000 -87.0215 10.5673 31.7750 18.8570 -29.2405 -4.9608 -0.0000 -0.0000 16.3092 5.0827 -32.3118 -2.7220 -7.1250 0.0000 -0.0000 -15.0056 -1.4731 15.9377 -0.0000 -0.0000 0.0000 85.3202 -10.8241 42.0712 -17.8487 27.9630 -4.4781 0.0000 0.0000 18.9489 -9.0541 -52.7055 7.2248 7.1250 -0.0000 -0.0000 67.0934 -74.5243 -51.6363
